<svg width="125" height="119" viewBox="0 0 125 119" fill="none" xmlns="http://www.w3.org/2000/svg">
<g clip-path="url(#clip0_7_2)" filter="url(#filter0_d_7_2)">
<rect width="117" height="111" transform="translate(4)" fill="white"/>
<rect x="4" width="135" height="144" fill="#A62A9A"/>
<g filter="url(#filter1_d_7_2)">
<mask id="path-2-outside-1_7_2" maskUnits="userSpaceOnUse" x="20.0622" y="6.40394" width="74.9711" height="84.8538" fill="black">
<rect fill="white" x="20.0622" y="6.40394" width="74.9711" height="84.8538"/>
<path d="M56.8219 89.6645L21.9128 29.2001L58.4039 8.13197L62.1539 14.6272L32.9846 31.4681L44.7801 51.8984L72.0599 36.1484L75.8099 42.6436L48.5301 58.3936L60.3937 78.942L90.0354 61.8284L93.7854 68.3236L56.8219 89.6645Z"/>
</mask>
<path d="M56.8219 89.6645L21.9128 29.2001L58.4039 8.13197L62.1539 14.6272L32.9846 31.4681L44.7801 51.8984L72.0599 36.1484L75.8099 42.6436L48.5301 58.3936L60.3937 78.942L90.0354 61.8284L93.7854 68.3236L56.8219 89.6645Z" fill="white"/>
<path d="M56.8219 89.6645L56.3888 89.9145L56.6388 90.3475L57.0719 90.0975L56.8219 89.6645ZM21.9128 29.2001L21.6628 28.7671L21.2297 29.0171L21.4797 29.4501L21.9128 29.2001ZM58.4039 8.13197L58.8369 7.88197L58.5869 7.44895L58.1539 7.69895L58.4039 8.13197ZM62.1539 14.6272L62.4039 15.0602L62.8369 14.8102L62.5869 14.3772L62.1539 14.6272ZM32.9846 31.4681L32.7346 31.0351L32.3016 31.2851L32.5516 31.7181L32.9846 31.4681ZM44.7801 51.8984L44.3471 52.1484L44.5971 52.5814L45.0301 52.3314L44.7801 51.8984ZM72.0599 36.1484L72.4929 35.8984L72.2429 35.4654L71.8099 35.7154L72.0599 36.1484ZM75.8099 42.6436L76.0599 43.0766L76.4929 42.8266L76.2429 42.3936L75.8099 42.6436ZM48.5301 58.3936L48.2801 57.9606L47.8471 58.2106L48.0971 58.6436L48.5301 58.3936ZM60.3937 78.942L59.9607 79.192L60.2107 79.625L60.6437 79.375L60.3937 78.942ZM90.0354 61.8284L90.4684 61.5784L90.2184 61.1454L89.7854 61.3954L90.0354 61.8284ZM93.7854 68.3236L94.0354 68.7566L94.4684 68.5066L94.2184 68.0736L93.7854 68.3236ZM57.2549 89.4145L22.3458 28.9501L21.4797 29.4501L56.3888 89.9145L57.2549 89.4145ZM22.1628 29.6332L58.6539 8.56498L58.1539 7.69895L21.6628 28.7671L22.1628 29.6332ZM57.9709 8.38197L61.7209 14.8772L62.5869 14.3772L58.8369 7.88197L57.9709 8.38197ZM61.9039 14.1941L32.7346 31.0351L33.2346 31.9011L62.4039 15.0602L61.9039 14.1941ZM32.5516 31.7181L44.3471 52.1484L45.2131 51.6484L33.4176 31.2181L32.5516 31.7181ZM45.0301 52.3314L72.3099 36.5814L71.8099 35.7154L44.5301 51.4654L45.0301 52.3314ZM71.6269 36.3984L75.3769 42.8936L76.2429 42.3936L72.4929 35.8984L71.6269 36.3984ZM75.5599 42.2106L48.2801 57.9606L48.7801 58.8266L76.0599 43.0766L75.5599 42.2106ZM48.0971 58.6436L59.9607 79.192L60.8267 78.692L48.9631 58.1436L48.0971 58.6436ZM60.6437 79.375L90.2854 62.2614L89.7854 61.3954L60.1437 78.509L60.6437 79.375ZM89.6024 62.0784L93.3524 68.5736L94.2184 68.0736L90.4684 61.5784L89.6024 62.0784ZM93.5354 67.8905L56.5719 89.2315L57.0719 90.0975L94.0354 68.7566L93.5354 67.8905Z" fill="black" mask="url(#path-2-outside-1_7_2)"/>
</g>
</g>
<defs>
<filter id="filter0_d_7_2" x="0" y="0" width="125" height="119" filterUnits="userSpaceOnUse" color-interpolation-filters="sRGB">
<feFlood flood-opacity="0" result="BackgroundImageFix"/>
<feColorMatrix in="SourceAlpha" type="matrix" values="0 0 0 0 0 0 0 0 0 0 0 0 0 0 0 0 0 0 127 0" result="hardAlpha"/>
<feOffset dy="4"/>
<feGaussianBlur stdDeviation="2"/>
<feComposite in2="hardAlpha" operator="out"/>
<feColorMatrix type="matrix" values="0 0 0 0 0 0 0 0 0 0 0 0 0 0 0 0 0 0 0.25 0"/>
<feBlend mode="normal" in2="BackgroundImageFix" result="effect1_dropShadow_7_2"/>
<feBlend mode="normal" in="SourceGraphic" in2="effect1_dropShadow_7_2" result="shape"/>
</filter>
<filter id="filter1_d_7_2" x="21.2298" y="7.44896" width="81.2386" height="90.8985" filterUnits="userSpaceOnUse" color-interpolation-filters="sRGB">
<feFlood flood-opacity="0" result="BackgroundImageFix"/>
<feColorMatrix in="SourceAlpha" type="matrix" values="0 0 0 0 0 0 0 0 0 0 0 0 0 0 0 0 0 0 127 0" result="hardAlpha"/>
<feOffset dx="4" dy="4"/>
<feGaussianBlur stdDeviation="2"/>
<feComposite in2="hardAlpha" operator="out"/>
<feColorMatrix type="matrix" values="0 0 0 0 0 0 0 0 0 0 0 0 0 0 0 0 0 0 0.25 0"/>
<feBlend mode="normal" in2="BackgroundImageFix" result="effect1_dropShadow_7_2"/>
<feBlend mode="normal" in="SourceGraphic" in2="effect1_dropShadow_7_2" result="shape"/>
</filter>
<clipPath id="clip0_7_2">
<rect width="117" height="111" fill="white" transform="translate(4)"/>
</clipPath>
</defs>
</svg>
